<?xml version="1.0" encoding="utf-8"?>
<!-- Generator: Adobe Illustrator 15.0.0, SVG Export Plug-In . SVG Version: 6.00 Build 0)  -->
<!DOCTYPE svg PUBLIC "-//W3C//DTD SVG 1.1//EN" "http://www.w3.org/Graphics/SVG/1.1/DTD/svg11.dtd">
<svg version="1.1" id="Шар_1" xmlns="http://www.w3.org/2000/svg" xmlns:xlink="http://www.w3.org/1999/xlink" x="0px" y="0px"
	 width="140px" height="30px" viewBox="0 0 140 30" enable-background="new 0 0 140 30" xml:space="preserve">
<g>
	<path fill="#3B414E" d="M100.771,8.602V28.41c-2.68,0-5.609,0-8.287,0V8.602H82.47V1.625h28.314v6.978H100.771z"/>
	<path fill="#3B414E" d="M133.929,19.004l6.07,3.695c-3.104,4.041-7.109,6.375-12.492,6.375c-4.094,0-7.811-1.564-10.502-4.111
		c-2.68-2.547-4.344-6.064-4.344-9.939c0-3.887,1.664-7.417,4.355-9.963c2.68-2.56,6.396-4.135,10.49-4.135
		c2.416,0,4.693,0.544,6.723,1.516c2.564,1.232,4.117,2.737,5.77,4.893l-6.084,3.719c-1.965-1.705-3.643-2.76-6.408-2.76
		c-1.939,0-3.705,0.746-4.982,1.967c-1.289,1.22-2.078,2.902-2.078,4.763c0,1.847,0.789,3.519,2.066,4.726
		c1.277,1.209,3.055,1.955,4.994,1.955C130.361,21.705,131.8,20.711,133.929,19.004L133.929,19.004z"/>
	<polygon fill="#3B414E" points="59.174,28.41 50.825,28.41 50.825,1.625 59.174,1.625 59.174,13.033 69.639,1.625 79.127,1.625 
		79.127,2.655 67.799,15.024 79.127,27.379 79.127,28.41 69.639,28.41 59.174,17.002 	"/>
	<path fill-rule="evenodd" clip-rule="evenodd" fill="#3B414E" d="M25.026,21.096c-5.445,2.971-11.398,2.854-13.561-0.697
		s0.699-8.487,6.144-11.458C23.055,5.96,29.007,6.087,31.17,9.627C33.333,13.18,30.462,18.115,25.026,21.096L25.026,21.096z"/>
	<path fill="#1EB1A0" d="M42.847,20.852C36.119,31.82,14.335,32.428,4.143,25.326l1.235-1.586
		c8.978,5.588,24.261,2.963,31.209-6.312L42.847,20.852z"/>
	<path fill="#1EB1A0" d="M0,9.148C6.727-1.821,28.51-2.427,38.703,4.674l-1.235,1.585C28.49,0.67,13.207,3.297,6.258,12.573L0,9.148
		z"/>
</g>
</svg>
