<?xml version="1.0" encoding="utf-8"?>
<!-- Generator: Adobe Illustrator 15.0.0, SVG Export Plug-In . SVG Version: 6.00 Build 0)  -->
<!DOCTYPE svg PUBLIC "-//W3C//DTD SVG 1.1//EN" "http://www.w3.org/Graphics/SVG/1.1/DTD/svg11.dtd">
<svg xmlns="http://www.w3.org/2000/svg" width="59" height="28" viewBox="0 0 59 28">
    <g fill="#1FB0A8" fill-rule="nonzero">
        <path d="M44.41 28H13.923C6.25 28 0 21.716 0 14S6.25 0 13.923 0H44.41c7.673 0 13.923 6.284 13.923 14 0 7.736-6.25 14-13.923 14zM13.923 3.401c-5.817 0-10.54 4.75-10.54 10.599s4.723 10.599 10.54 10.599H44.41c5.817 0 10.54-4.75 10.54-10.599S50.227 3.401 44.41 3.401H13.923z"/>
        <path d="M50.023 17.022c-.688-.679-1.828-.679-2.537 0-1.678 1.654-4.43 1.654-6.108 0-1.677-1.654-1.699-4.369 0-6.023 1.678-1.654 4.43-1.654 6.108 0 .688.679 1.828.679 2.537 0 .688-.678.688-1.802 0-2.502-3.075-3.033-8.086-3.033-11.161 0a7.719 7.719 0 0 0 0 11.006c3.075 3.033 8.086 3.033 11.161 0 .71-.678.71-1.781 0-2.481M13.315 11.74h1.571l3.835-4.79c.23-.3.712-.728 1.571-.728 1.132 0 1.991.877 1.991 1.882 0 .877-.419 1.305-.859 1.882l-2.996 3.336 3.268 3.914c.42.577.86 1.005.86 1.882 0 1.005-.86 1.882-1.991 1.882-.86 0-1.362-.428-1.572-.727l-3.981-5.069h-1.697v3.914c0 1.005-.86 1.882-1.991 1.882-1.132 0-1.99-.877-1.99-1.882V8.104c0-1.005.858-1.882 1.99-1.882 1.132 0 1.99.877 1.99 1.882v3.636zM25.229 10.316c-1.163 0-1.896-.696-1.896-1.658S24.066 7 25.23 7h10.209c1.163 0 1.895.696 1.895 1.658s-.732 1.658-1.895 1.658h-3.059v8.883c0 .962-.883 1.801-2.046 1.801-1.163 0-2.046-.84-2.046-1.801v-8.883H25.23z"/>
    </g>
</svg>
