<svg width="195" height="75" viewBox="0 0 195 75" fill="none" xmlns="http://www.w3.org/2000/svg">
<g clip-path="url(#clip0)">
<path d="M29.7375 45.1202L38.1875 10.8336L40.4625 45.8602H49.9687L47.0437 1.13135H32.2562L25.025 31.1425L17.7125 1.13135H2.925L0 45.8602H9.50625L11.7812 10.8336L20.2312 45.1202H29.7375ZM156.65 18.0691H162.337L164.287 14.3691L162.337 10.7513H156.569V18.0691H156.65ZM140.237 18.0691H145.275V32.5402C145.275 40.1047 147.144 45.778 155.431 45.778C158.437 45.778 160.875 45.038 162.337 44.4625V36.3225C157.381 37.2269 154.944 37.5558 154.944 30.8958V1.13135H145.275V10.8336H141.05L140.237 18.0691ZM94.7375 31.2247C95.3875 39.6114 108.387 38.2136 113.994 36.4047L115.375 43.7225C102.294 48.8202 84.7437 45.5314 84.7437 28.2647C84.7437 5.24246 117.244 2.77579 117.244 27.0313C117.244 28.8402 117 30.4847 116.919 31.3069H94.7375V31.2247ZM107.331 23.8247C107.331 14.2869 94.6562 14.2047 94.7375 23.8247H107.331ZM128.131 20.0425C128.131 15.6847 136.175 17.0825 138.612 18.0691L139.344 10.7513C131.219 8.20246 118.544 10.0936 118.544 20.9469C118.381 31.6358 133.981 30.238 133.981 35.3358C133.981 40.6802 121.794 37.9669 119.112 36.3225L117.731 43.6402C126.831 47.6691 144.056 46.7647 143.569 34.5958C143.406 22.838 128.131 24.8936 128.131 20.0425Z" fill="#0060AE"/>
<path d="M60.5313 31.2248C61.1813 39.6114 74.1813 38.2137 79.7876 36.4048L81.1688 43.7226C68.0876 48.8203 50.5376 45.5314 50.5376 28.2648C50.5376 5.24256 83.0376 2.77589 83.0376 27.0314C83.0376 28.8403 82.7939 30.4848 82.7126 31.307H60.5313V31.2248ZM73.2063 23.8248C73.2063 14.287 60.5313 14.2048 60.6126 23.8248H73.2063Z" fill="#EC1944"/>
<path d="M167.538 1.13135L174.688 14.4513L167.538 27.7713H160.306L167.538 14.4513L160.306 1.13135H167.538Z" fill="#EC1944"/>
<path d="M117.295 65.8404C116.645 66.0871 115.426 66.3338 114.289 66.3338C111.283 66.3338 109.414 64.4427 109.414 61.4004C109.414 57.9471 111.608 56.4671 114.208 56.4671C115.508 56.4671 116.564 56.796 117.295 57.0427L118.189 53.5071C117.539 53.096 115.995 52.7671 114.045 52.7671C109.089 52.7671 104.864 55.8093 104.864 61.7293C104.864 66.1693 107.626 70.116 113.801 70.116C115.751 70.116 117.376 69.7049 117.945 69.4582L117.295 65.8404ZM119.083 69.8693H123.47V62.6338C123.47 62.4693 123.47 62.1404 123.633 61.8938C123.795 61.4004 124.201 60.9071 125.095 60.9071C126.233 60.9071 126.639 61.8115 126.639 63.2093V69.7871H131.026V62.716C131.026 59.2627 129.564 57.2893 126.801 57.2893C126.151 57.2893 125.501 57.4538 124.933 57.7004C124.364 57.9471 123.958 58.3582 123.47 58.8515H123.389V52.1093H119.083V69.8693ZM137.201 69.8693V57.536H132.814V69.7871H137.201V69.8693ZM135.008 52.0271C133.626 52.0271 132.733 52.9315 132.733 54.1649C132.733 55.3982 133.626 56.3027 134.926 56.3027C136.308 56.3027 137.201 55.316 137.201 54.1649C137.283 52.9315 136.389 52.0271 135.008 52.0271ZM138.989 69.8693H143.376V62.8804C143.376 62.5515 143.376 62.2226 143.539 61.976C143.701 61.4826 144.108 60.9071 145.001 60.9071C146.058 60.9071 146.545 61.7293 146.545 63.1271V69.7871H150.933V62.6338C150.933 59.2627 149.389 57.2893 146.626 57.2893C144.595 57.2893 143.458 58.5227 143.051 59.0982H142.97L142.808 57.536H138.989C139.07 58.6871 139.07 60.0849 139.07 61.7293V69.8693H138.989ZM163.445 62.716C163.445 59.6738 161.983 57.2893 157.839 57.2893C155.32 57.2893 153.614 57.9471 152.801 58.3582L153.614 61.236C154.426 60.7427 155.726 60.3315 157.026 60.3315C158.651 60.3315 158.976 60.9071 158.976 61.4004V61.4827C154.914 61.4827 151.989 62.9627 151.989 66.2515C151.989 68.3071 153.533 70.116 155.97 70.116C157.27 70.116 158.489 69.7049 159.301 68.8004H159.383L159.626 69.8693H163.608C163.445 69.2115 163.445 68.0604 163.445 66.9093V62.716ZM159.139 65.1826C159.139 65.4293 159.139 65.5938 159.058 65.8404C158.895 66.4982 158.164 66.9915 157.514 66.9915C156.783 66.9915 156.295 66.5804 156.295 65.8404C156.295 64.7715 157.351 64.2782 159.139 64.2782V65.1826ZM202.526 57.2893C198.383 57.2893 195.864 59.9204 195.864 63.7849C195.864 67.8138 198.626 70.116 202.283 70.116C205.695 70.116 208.783 68.0604 208.783 63.5382C208.783 59.9204 206.264 57.2893 202.526 57.2893ZM202.364 60.496C203.664 60.496 204.233 62.0582 204.233 63.7027C204.233 65.676 203.583 66.9093 202.364 66.9093C200.983 66.9093 200.414 65.5115 200.414 63.7027C200.414 62.0582 200.901 60.496 202.364 60.496ZM209.92 74.8027H214.308V68.9649H214.389C214.795 69.6226 215.851 70.116 217.233 70.116C219.833 70.116 222.758 68.0604 222.758 63.5382C222.758 59.5093 220.32 57.2893 217.801 57.2893C216.176 57.2893 214.795 57.9471 213.901 59.0982H213.82L213.658 57.536H209.839C209.92 58.6871 209.92 60.0849 209.92 61.7293V74.8027ZM214.389 62.9627C214.389 62.7982 214.389 62.5515 214.47 62.3871C214.632 61.4826 215.364 60.8249 216.258 60.8249C217.639 60.8249 218.37 62.0582 218.37 63.7849C218.37 65.5938 217.558 66.7449 216.258 66.7449C215.364 66.7449 214.714 66.0871 214.551 65.2649C214.47 65.0182 214.47 64.7715 214.47 64.5249V62.9627H214.389Z" fill="#0060AE"/>
</g>
<defs>
<clipPath id="clip0">
<rect width="195" height="74" fill="white" transform="translate(0 0.966797)"/>
</clipPath>
</defs>
</svg>
