<?xml version="1.0" encoding="UTF-8"?> <svg xmlns="http://www.w3.org/2000/svg" width="185" height="70" viewBox="0 0 185 70" fill="none"> <path d="M185 0.187744H51.5195V69.6793H185V0.187744Z" fill="black"></path> <path fill-rule="evenodd" clip-rule="evenodd" d="M104.636 16.1628C104.237 15.719 103.749 15.4084 103.172 15.1422C102.595 14.9203 101.974 14.7872 101.264 14.7872H93.0098V29.4753H97.7135V24.7272H101.219C101.929 24.7272 102.55 24.5941 103.127 24.3722C103.704 24.1503 104.192 23.7953 104.592 23.3516C104.991 22.9078 105.346 22.4197 105.568 21.7984C105.79 21.2216 105.923 20.5559 105.923 19.8903V19.6241C105.923 18.9141 105.79 18.2928 105.568 17.7159C105.346 17.0947 105.035 16.6066 104.636 16.1628ZM101.13 19.8903C101.13 20.3341 100.997 20.6891 100.775 20.9553C100.509 21.2216 100.154 21.3547 99.666 21.3547H97.7135V18.3372H99.666C100.199 18.3372 100.554 18.4703 100.775 18.7366C100.997 19.0028 101.13 19.3578 101.13 19.7572V19.8903ZM121.144 22.6416C121.499 22.3753 121.809 22.0203 122.031 21.7097C122.253 21.3547 122.43 20.9553 122.564 20.5559C122.697 20.1566 122.741 19.7128 122.741 19.3134C122.741 18.7366 122.652 18.1597 122.43 17.5828C122.209 17.0503 121.898 16.5622 121.499 16.1628C121.099 15.7634 120.567 15.4084 119.945 15.1865C119.324 14.9203 118.614 14.8315 117.815 14.8315H108.852V29.4753H113.555V24.1503H115.286L117.904 29.5197H123.185L119.901 23.3516C120.345 23.1741 120.789 22.9522 121.144 22.6416ZM117.815 20.0234C117.727 20.2009 117.638 20.3341 117.549 20.4672C117.416 20.6003 117.283 20.6891 117.105 20.7334C116.928 20.8222 116.795 20.8222 116.617 20.8222H113.511V18.1153H116.617C116.795 18.1153 116.972 18.1597 117.105 18.2041C117.283 18.2484 117.416 18.3816 117.549 18.4703C117.682 18.6034 117.771 18.7366 117.815 18.9141C117.904 19.0916 117.904 19.2691 117.904 19.4466C117.904 19.7128 117.904 19.8903 117.815 20.0234ZM125.981 29.4753H130.684V14.7872H125.981V29.4753ZM138.494 24.1947C138.494 23.6178 138.494 23.0853 138.45 22.5528C138.406 22.0203 138.361 21.4878 138.317 21.0884C138.272 20.5559 138.184 20.0678 138.139 19.6241H138.228L140.979 29.5641H144.662L147.369 19.6241H147.458C147.369 20.1122 147.325 20.6003 147.281 21.1328C147.236 21.5766 147.192 22.0647 147.147 22.6416C147.103 23.1741 147.103 23.751 147.103 24.2835V29.4753H151.762V14.7872H145.328L143.109 23.2628H143.021L140.802 14.7872H134.146V29.4753H138.494V24.1947ZM159.706 25.9697V23.751H166.539V20.3784H159.706V18.3372H167.693V14.8315H155.002V29.4753H167.826V25.9697H159.706ZM104.636 41.8116C104.237 41.3679 103.749 41.0573 103.172 40.791C102.595 40.5691 101.974 40.436 101.264 40.436H93.0098V55.1242H97.7135V50.3761H101.219C101.929 50.3761 102.55 50.2429 103.127 50.021C103.704 49.7992 104.192 49.4442 104.592 49.0004C104.991 48.5567 105.346 48.0685 105.568 47.4473C105.79 46.8704 105.923 46.2048 105.923 45.5392V45.2729C105.923 44.5629 105.79 43.9417 105.568 43.3648C105.346 42.7435 105.035 42.211 104.636 41.8116ZM101.13 45.4948C101.13 45.9385 100.997 46.2935 100.775 46.5598C100.509 46.826 100.154 46.9592 99.666 46.9592H97.7135V43.9417H99.666C100.199 43.9417 100.554 44.0748 100.775 44.341C100.997 44.6073 101.13 44.9623 101.13 45.3617V45.4948ZM121.144 48.2904C121.499 48.0242 121.809 47.6692 122.031 47.3585C122.253 47.0035 122.43 46.6042 122.564 46.2048C122.697 45.8054 122.741 45.3617 122.741 44.9623C122.741 44.3854 122.652 43.8085 122.43 43.2316C122.209 42.6991 121.898 42.211 121.499 41.8116C121.099 41.4123 120.567 41.0573 119.945 40.8354C119.324 40.5691 118.614 40.4804 117.815 40.4804H108.852V55.1686H113.555V49.7992H115.286L117.904 55.1686H123.185L119.901 49.0004C120.345 48.7785 120.789 48.5567 121.144 48.2904ZM117.815 45.6723C117.727 45.8498 117.638 45.9829 117.549 46.116C117.416 46.2492 117.283 46.3379 117.105 46.3823C116.928 46.471 116.795 46.471 116.617 46.471H113.511V43.7641H116.617C116.795 43.7641 116.972 43.8085 117.105 43.8529C117.283 43.8973 117.416 44.0304 117.549 44.1192C117.682 44.2523 117.771 44.3854 117.815 44.5629C117.904 44.7404 117.904 44.9179 117.904 45.0954C117.904 45.3173 117.904 45.4948 117.815 45.6723ZM125.981 55.1242H130.684V40.436H125.981V55.1242ZM144.751 47.6692L138.583 40.436H134.456V55.1242H138.761V47.9798L144.929 55.1242H149.056V40.436H144.751V47.6692ZM151.541 44.1635H156.377V55.0798H161.081V44.1635H165.874V40.3916H151.541V44.1635Z" fill="white"></path> <path d="M39.6275 11.9028H20.0137V23.7953H39.6275V31.916H27.735V43.8085H39.6275V57.9198H51.52V11.9028H39.6275Z" fill="#FFDE00"></path> <path d="M11.9813 31.916H0V43.8085H11.9813V31.916Z" fill="#FFDE00"></path> <path d="M51.5209 23.7953H61.0172C63.4579 23.7953 65.2772 25.6147 65.2772 27.8778C65.2772 30.141 63.4579 31.9603 61.1947 31.9603H51.4766V43.8529H61.1947C69.981 43.8529 77.1698 36.7085 77.1698 27.8778C77.1698 19.0915 70.0254 11.9028 61.1947 11.9028H51.4766V23.7953H51.5209Z" fill="#FFDE00"></path> </svg> 