<svg fill="none" height="41" viewBox="0 0 222 41" width="222" xmlns="http://www.w3.org/2000/svg"><path d="m21.9624 13.5929 21.5688-7.56486v-5.200001c0-.385965-.3617-.666666-.7377-.575438l-20.6892 4.968419c-.0922.02105-.1915.02105-.2837 0l-20.68929-4.968419c-.375907-.091228-.737633.189473-.737633.575438v1.614031 2.92632 9.45961c0 .4492.255335.8562.659613 1.0597l20.90911 10.3298 15.462-7.6421v3.986l-15.462 8.6666-21.568723-12.0842v5.8105c0 .386.191501.7509.517763.9755l20.37716 13.8877c.4114.2807.9504.2807 1.3547 0l20.3701-13.8947c.3192-.2176.5178-.5825.5178-.9685v-.007-14.4631c0-.4211-.4256-.70178-.8157-.54739l-20.7531 8.18949-15.46195-6.1053v-3.85261z" fill="#0093ee"/><path d="m87.0729 7.54919h-19.5473c-1.5037 0-2.7165 1.20001-2.7165 2.68771v9.7123c0 1.4877 1.2128 2.6877 2.7165 2.6877h17.1926v5.0597h-19.9091v2.3298c0 1.4877 1.2128 2.6877 2.7165 2.6877h19.5473c1.5037 0 2.7165-1.2 2.7165-2.6877v-9.7193c0-1.4877-1.2128-2.6877-2.7165-2.6877h-17.1926v-5.0597h19.9091v-2.3298c0-1.48071-1.2199-2.68071-2.7165-2.68071zm32.9811 0h-19.548c-1.5032 0-2.7161 1.20001-2.7161 2.68771v19.7895c0 1.4877 1.2129 2.6877 2.7161 2.6877h19.548c1.503 0 2.716-1.2 2.716-2.6877v-2.3298h-19.909v-5.0597h14.639v-5.0175h-14.639v-5.0597h19.909v-2.3298c0-1.48071-1.22-2.68071-2.716-2.68071zm32.747 0h-19.548c-1.503 0-2.716 1.20001-2.716 2.68771v19.7895c0 1.4877 1.213 2.6877 2.716 2.6877h19.548c1.503 0 2.716-1.2 2.716-2.6877v-2.3298h-19.909v-15.1369h19.909v-2.3298c0-1.48071-1.213-2.68071-2.716-2.68071zm30.64 20.14741h-14.838v-20.14741h-5.071v22.47721c0 1.4877 1.22 2.6877 2.716 2.6877h19.548c1.503 0 2.716-1.2 2.716-2.6877v-22.47721h-5.071zm38.052-9.7895v-7.6702c0-1.4877-1.213-2.68771-2.717-2.68771h-22.263v25.16491h5.071v-10.0772h12.157c1.482 0 2.688 1.193 2.688 2.6597v7.4175h5.071v-8.6035c0-1.186-.518-2.3158-1.419-3.1018.887-.7789 1.412-1.9087 1.412-3.1017zm-5.071-.2877h-14.838v-5.0597h14.838z" fill="#fff"/></svg>